<svg width="560" height="190" viewBox="0 0 560 190" fill="none" xmlns="http://www.w3.org/2000/svg">
  <defs>
    <linearGradient id="bg" x1="0" y1="0" x2="560" y2="190" gradientUnits="userSpaceOnUse">
      <stop stop-color="#020617"/>
      <stop offset="0.55" stop-color="#0f172a"/>
      <stop offset="1" stop-color="#1e3a8a"/>
    </linearGradient>
  </defs>
  <rect width="560" height="190" rx="22" fill="url(#bg)"/>
  <rect x="1" y="1" width="558" height="188" rx="21" stroke="#60a5fa" stroke-opacity="0.36" stroke-width="2"/>
  <circle cx="490" cy="48" r="74" fill="#2563eb" fill-opacity="0.16"/>
  <circle cx="76" cy="166" r="82" fill="#22c55e" fill-opacity="0.09"/>
  <g stroke="#60a5fa" stroke-width="3" stroke-opacity="0.9">
    <rect x="392" y="46" width="98" height="22" rx="5"/>
    <rect x="392" y="81" width="98" height="22" rx="5"/>
    <rect x="392" y="116" width="98" height="22" rx="5"/>
  </g>
  <g fill="#22c55e">
    <circle cx="410" cy="57" r="4"/>
    <circle cx="410" cy="92" r="4"/>
    <circle cx="410" cy="127" r="4"/>
  </g>
  <text x="34" y="45" fill="#94a3b8" font-family="Segoe UI, Arial, sans-serif" font-size="13" font-weight="700" letter-spacing="3">IT OPERATIONS</text>
  <text x="34" y="84" fill="#ffffff" font-family="Segoe UI, Arial, sans-serif" font-size="30" font-weight="800">Enterprise Sysadmin</text>
  <text x="34" y="115" fill="#cbd5e1" font-family="Segoe UI, Arial, sans-serif" font-size="17">Centralized dashboard concept for 250+ server visibility.</text>
  <rect x="34" y="139" width="96" height="27" rx="13.5" fill="#60a5fa" fill-opacity="0.20"/>
  <rect x="140" y="139" width="82" height="27" rx="13.5" fill="#22c55e" fill-opacity="0.18"/>
  <rect x="232" y="139" width="92" height="27" rx="13.5" fill="#f97316" fill-opacity="0.18"/>
  <text x="55" y="158" fill="#bfdbfe" font-family="Segoe UI, Arial, sans-serif" font-size="13" font-weight="700">Systems</text>
  <text x="162" y="158" fill="#bbf7d0" font-family="Segoe UI, Arial, sans-serif" font-size="13" font-weight="700">Ops</text>
  <text x="252" y="158" fill="#fed7aa" font-family="Segoe UI, Arial, sans-serif" font-size="13" font-weight="700">Dashboards</text>
</svg>
