<svg width="560" height="190" viewBox="0 0 560 190" fill="none" xmlns="http://www.w3.org/2000/svg">
  <defs>
    <linearGradient id="bg" x1="0" y1="0" x2="560" y2="190" gradientUnits="userSpaceOnUse">
      <stop stop-color="#020617"/>
      <stop offset="0.55" stop-color="#111827"/>
      <stop offset="1" stop-color="#4c1d95"/>
    </linearGradient>
    <linearGradient id="line" x1="28" y1="28" x2="520" y2="160" gradientUnits="userSpaceOnUse">
      <stop stop-color="#a78bfa"/>
      <stop offset="1" stop-color="#38bdf8"/>
    </linearGradient>
  </defs>
  <rect width="560" height="190" rx="22" fill="url(#bg)"/>
  <rect x="1" y="1" width="558" height="188" rx="21" stroke="#a78bfa" stroke-opacity="0.36" stroke-width="2"/>
  <circle cx="486" cy="52" r="74" fill="#a78bfa" fill-opacity="0.13"/>
  <circle cx="76" cy="168" r="82" fill="#38bdf8" fill-opacity="0.09"/>
  <rect x="381" y="41" width="116" height="78" rx="13" stroke="url(#line)" stroke-width="3" stroke-opacity="0.8"/>
  <path d="M400 87L426 106L478 58" stroke="#ffffff" stroke-width="5" stroke-linecap="round" stroke-linejoin="round"/>
  <text x="34" y="45" fill="#94a3b8" font-family="Segoe UI, Arial, sans-serif" font-size="13" font-weight="700" letter-spacing="3">CAPSTONE PROJECT</text>
  <text x="34" y="84" fill="#ffffff" font-family="Segoe UI, Arial, sans-serif" font-size="32" font-weight="800">capstone_kent</text>
  <text x="34" y="115" fill="#cbd5e1" font-family="Segoe UI, Arial, sans-serif" font-size="17">Full-stack platform with auth, payments, and AI chatbot flow.</text>
  <rect x="34" y="139" width="62" height="27" rx="13.5" fill="#a78bfa" fill-opacity="0.22"/>
  <rect x="106" y="139" width="80" height="27" rx="13.5" fill="#38bdf8" fill-opacity="0.18"/>
  <rect x="196" y="139" width="112" height="27" rx="13.5" fill="#22c55e" fill-opacity="0.18"/>
  <text x="55" y="158" fill="#ddd6fe" font-family="Segoe UI, Arial, sans-serif" font-size="13" font-weight="700">PHP</text>
  <text x="129" y="158" fill="#bae6fd" font-family="Segoe UI, Arial, sans-serif" font-size="13" font-weight="700">MySQL</text>
  <text x="217" y="158" fill="#bbf7d0" font-family="Segoe UI, Arial, sans-serif" font-size="13" font-weight="700">AI Feature</text>
</svg>
