<svg width="560" height="190" viewBox="0 0 560 190" fill="none" xmlns="http://www.w3.org/2000/svg">
  <defs>
    <linearGradient id="bg" x1="0" y1="0" x2="560" y2="190" gradientUnits="userSpaceOnUse">
      <stop stop-color="#020617"/>
      <stop offset="0.55" stop-color="#0f172a"/>
      <stop offset="1" stop-color="#312e81"/>
    </linearGradient>
  </defs>
  <rect width="560" height="190" rx="22" fill="url(#bg)"/>
  <rect x="1" y="1" width="558" height="188" rx="21" stroke="#818cf8" stroke-opacity="0.38" stroke-width="2"/>
  <circle cx="488" cy="52" r="74" fill="#818cf8" fill-opacity="0.14"/>
  <circle cx="70" cy="168" r="82" fill="#22c55e" fill-opacity="0.09"/>
  <rect x="388" y="58" width="104" height="78" rx="14" stroke="#a5b4fc" stroke-width="4"/>
  <path d="M414 58V46C414 31 425 21 440 21C455 21 466 31 466 46V58" stroke="#a5b4fc" stroke-width="4" stroke-linecap="round"/>
  <circle cx="440" cy="97" r="9" fill="#ffffff"/>
  <path d="M440 106V121" stroke="#ffffff" stroke-width="5" stroke-linecap="round"/>
  <text x="34" y="45" fill="#94a3b8" font-family="Segoe UI, Arial, sans-serif" font-size="13" font-weight="700" letter-spacing="3">POWERSHELL AUTOMATION</text>
  <text x="34" y="84" fill="#ffffff" font-family="Segoe UI, Arial, sans-serif" font-size="29" font-weight="800">Password Expiry</text>
  <text x="34" y="115" fill="#cbd5e1" font-family="Segoe UI, Arial, sans-serif" font-size="17">Active Directory style expiry alerts and support workflow logic.</text>
  <rect x="34" y="139" width="106" height="27" rx="13.5" fill="#818cf8" fill-opacity="0.22"/>
  <rect x="150" y="139" width="96" height="27" rx="13.5" fill="#22c55e" fill-opacity="0.18"/>
  <rect x="256" y="139" width="86" height="27" rx="13.5" fill="#38bdf8" fill-opacity="0.18"/>
  <text x="55" y="158" fill="#c7d2fe" font-family="Segoe UI, Arial, sans-serif" font-size="13" font-weight="700">PowerShell</text>
  <text x="172" y="158" fill="#bbf7d0" font-family="Segoe UI, Arial, sans-serif" font-size="13" font-weight="700">AD Ops</text>
  <text x="278" y="158" fill="#bae6fd" font-family="Segoe UI, Arial, sans-serif" font-size="13" font-weight="700">Support</text>
</svg>
