<svg width="560" height="180" viewBox="0 0 560 180" fill="none" xmlns="http://www.w3.org/2000/svg">
  <defs>
    <linearGradient id="bg" x1="0" y1="0" x2="560" y2="180" gradientUnits="userSpaceOnUse">
      <stop stop-color="#020617"/>
      <stop offset="0.58" stop-color="#0f172a"/>
      <stop offset="1" stop-color="#0c4a6e"/>
    </linearGradient>
  </defs>
  <rect width="560" height="180" rx="22" fill="url(#bg)"/>
  <rect x="1" y="1" width="558" height="178" rx="21" stroke="#38bdf8" stroke-opacity="0.36" stroke-width="2"/>
  <circle cx="486" cy="44" r="74" fill="#38bdf8" fill-opacity="0.12"/>
  <circle cx="74" cy="164" r="82" fill="#22c55e" fill-opacity="0.08"/>
  <text x="34" y="42" fill="#94a3b8" font-family="Segoe UI, Arial, sans-serif" font-size="13" font-weight="700" letter-spacing="3">GITHUB SNAPSHOT</text>
  <text x="34" y="82" fill="#ffffff" font-family="Segoe UI, Arial, sans-serif" font-size="34" font-weight="800">36 Public Repos</text>
  <text x="34" y="112" fill="#cbd5e1" font-family="Segoe UI, Arial, sans-serif" font-size="17">Portfolio, BI tools, IT ops, security, cloud, and app builds.</text>
  <rect x="34" y="132" width="84" height="28" rx="14" fill="#38bdf8" fill-opacity="0.20"/>
  <rect x="130" y="132" width="78" height="28" rx="14" fill="#22c55e" fill-opacity="0.18"/>
  <rect x="220" y="132" width="92" height="28" rx="14" fill="#f97316" fill-opacity="0.18"/>
  <rect x="324" y="132" width="104" height="28" rx="14" fill="#a78bfa" fill-opacity="0.18"/>
  <text x="56" y="151" fill="#bae6fd" font-family="Segoe UI, Arial, sans-serif" font-size="13" font-weight="700">Data</text>
  <text x="153" y="151" fill="#bbf7d0" font-family="Segoe UI, Arial, sans-serif" font-size="13" font-weight="700">IT Ops</text>
  <text x="242" y="151" fill="#fed7aa" font-family="Segoe UI, Arial, sans-serif" font-size="13" font-weight="700">Security</text>
  <text x="344" y="151" fill="#ddd6fe" font-family="Segoe UI, Arial, sans-serif" font-size="13" font-weight="700">Full Stack</text>
  <path d="M372 67H498" stroke="#38bdf8" stroke-width="6" stroke-linecap="round"/>
  <path d="M372 91H474" stroke="#22c55e" stroke-width="6" stroke-linecap="round"/>
  <path d="M372 115H446" stroke="#f97316" stroke-width="6" stroke-linecap="round"/>
</svg>
