<svg width="560" height="180" viewBox="0 0 560 180" fill="none" xmlns="http://www.w3.org/2000/svg">
  <defs>
    <linearGradient id="bg" x1="0" y1="0" x2="560" y2="180" gradientUnits="userSpaceOnUse">
      <stop stop-color="#020617"/>
      <stop offset="0.55" stop-color="#111827"/>
      <stop offset="1" stop-color="#064e3b"/>
    </linearGradient>
  </defs>
  <rect width="560" height="180" rx="22" fill="url(#bg)"/>
  <rect x="1" y="1" width="558" height="178" rx="21" stroke="#22c55e" stroke-opacity="0.34" stroke-width="2"/>
  <circle cx="490" cy="44" r="74" fill="#22c55e" fill-opacity="0.12"/>
  <text x="34" y="42" fill="#94a3b8" font-family="Segoe UI, Arial, sans-serif" font-size="13" font-weight="700" letter-spacing="3">BUILD STACK</text>
  <text x="34" y="80" fill="#ffffff" font-family="Segoe UI, Arial, sans-serif" font-size="32" font-weight="800">Code + Data + Ops</text>
  <text x="34" y="110" fill="#cbd5e1" font-family="Segoe UI, Arial, sans-serif" font-size="17">JavaScript, TypeScript, PHP, SQL, PowerShell, Python, Flutter.</text>
  <text x="34" y="145" fill="#bae6fd" font-family="Segoe UI, Arial, sans-serif" font-size="14" font-weight="700">TypeScript</text>
  <rect x="128" y="134" width="174" height="14" rx="7" fill="#1e293b"/>
  <rect x="128" y="134" width="130" height="14" rx="7" fill="#38bdf8"/>
  <text x="324" y="145" fill="#bbf7d0" font-family="Segoe UI, Arial, sans-serif" font-size="14" font-weight="700">SQL</text>
  <rect x="362" y="134" width="156" height="14" rx="7" fill="#1e293b"/>
  <rect x="362" y="134" width="122" height="14" rx="7" fill="#22c55e"/>
  <text x="34" y="166" fill="#c4b5fd" font-family="Segoe UI, Arial, sans-serif" font-size="14" font-weight="700">PowerShell</text>
  <rect x="128" y="155" width="174" height="14" rx="7" fill="#1e293b"/>
  <rect x="128" y="155" width="112" height="14" rx="7" fill="#a78bfa"/>
  <text x="324" y="166" fill="#fed7aa" font-family="Segoe UI, Arial, sans-serif" font-size="14" font-weight="700">PHP</text>
  <rect x="362" y="155" width="156" height="14" rx="7" fill="#1e293b"/>
  <rect x="362" y="155" width="104" height="14" rx="7" fill="#f97316"/>
</svg>
