<svg width="1200" height="420" viewBox="0 0 1200 420" fill="none" xmlns="http://www.w3.org/2000/svg">
  <defs>
    <linearGradient id="bg" x1="0" y1="0" x2="1200" y2="420" gradientUnits="userSpaceOnUse">
      <stop offset="0" stop-color="#020617"/>
      <stop offset="0.48" stop-color="#0f172a"/>
      <stop offset="1" stop-color="#042f2e"/>
    </linearGradient>
    <linearGradient id="accent" x1="180" y1="80" x2="1040" y2="340" gradientUnits="userSpaceOnUse">
      <stop offset="0" stop-color="#38bdf8"/>
      <stop offset="0.48" stop-color="#22c55e"/>
      <stop offset="1" stop-color="#f97316"/>
    </linearGradient>
    <radialGradient id="glowA" cx="0" cy="0" r="1" gradientUnits="userSpaceOnUse" gradientTransform="translate(944 92) rotate(125) scale(360 220)">
      <stop stop-color="#2563eb" stop-opacity="0.45"/>
      <stop offset="1" stop-color="#2563eb" stop-opacity="0"/>
    </radialGradient>
    <radialGradient id="glowB" cx="0" cy="0" r="1" gradientUnits="userSpaceOnUse" gradientTransform="translate(270 342) rotate(-18) scale(390 180)">
      <stop stop-color="#14b8a6" stop-opacity="0.38"/>
      <stop offset="1" stop-color="#14b8a6" stop-opacity="0"/>
    </radialGradient>
    <pattern id="grid" width="42" height="42" patternUnits="userSpaceOnUse">
      <path d="M42 0H0V42" stroke="#94a3b8" stroke-opacity="0.08"/>
    </pattern>
    <filter id="softShadow" x="-20%" y="-20%" width="140%" height="140%">
      <feDropShadow dx="0" dy="18" stdDeviation="18" flood-color="#000000" flood-opacity="0.4"/>
    </filter>
  </defs>

  <rect width="1200" height="420" rx="34" fill="url(#bg)"/>
  <rect width="1200" height="420" rx="34" fill="url(#grid)"/>
  <rect width="1200" height="420" rx="34" fill="url(#glowA)"/>
  <rect width="1200" height="420" rx="34" fill="url(#glowB)"/>

  <path d="M84 290C206 168 299 348 426 218C546 96 642 215 750 128C850 47 971 78 1096 34" stroke="url(#accent)" stroke-width="3" stroke-opacity="0.88"/>
  <path d="M102 328C238 234 308 358 447 270C592 179 644 292 792 190C920 102 988 172 1116 102" stroke="#38bdf8" stroke-width="1.5" stroke-opacity="0.28"/>

  <g opacity="0.92">
    <circle cx="84" cy="290" r="5" fill="#38bdf8"/>
    <circle cx="426" cy="218" r="5" fill="#22c55e"/>
    <circle cx="750" cy="128" r="5" fill="#f97316"/>
    <circle cx="1096" cy="34" r="5" fill="#38bdf8"/>
    <circle cx="447" cy="270" r="4" fill="#14b8a6"/>
    <circle cx="792" cy="190" r="4" fill="#38bdf8"/>
  </g>

  <g filter="url(#softShadow)">
    <rect x="72" y="74" width="456" height="246" rx="26" fill="#020617" fill-opacity="0.68" stroke="#38bdf8" stroke-opacity="0.22"/>
    <rect x="672" y="96" width="422" height="212" rx="26" fill="#020617" fill-opacity="0.62" stroke="#22c55e" stroke-opacity="0.2"/>
  </g>

  <text x="104" y="136" fill="#e2e8f0" font-family="Segoe UI, Arial, sans-serif" font-size="24" font-weight="700" letter-spacing="4">BI / DATA / IT OPS</text>
  <text x="104" y="194" fill="#ffffff" font-family="Segoe UI, Arial, sans-serif" font-size="58" font-weight="800">Rasik Tiwari</text>
  <text x="108" y="242" fill="#94a3b8" font-family="Segoe UI, Arial, sans-serif" font-size="24" font-weight="500">Snowflake SQL, Tableau, Matillion, M365, Azure AD</text>
  <rect x="108" y="270" width="146" height="34" rx="17" fill="#2563eb" fill-opacity="0.88"/>
  <rect x="268" y="270" width="126" height="34" rx="17" fill="#14b8a6" fill-opacity="0.88"/>
  <rect x="408" y="270" width="82" height="34" rx="17" fill="#f97316" fill-opacity="0.9"/>
  <text x="127" y="293" fill="#ffffff" font-family="Segoe UI, Arial, sans-serif" font-size="15" font-weight="700">Aviation BI</text>
  <text x="289" y="293" fill="#ffffff" font-family="Segoe UI, Arial, sans-serif" font-size="15" font-weight="700">Automation</text>
  <text x="432" y="293" fill="#ffffff" font-family="Segoe UI, Arial, sans-serif" font-size="15" font-weight="700">Cloud</text>

  <text x="708" y="144" fill="#e2e8f0" font-family="Segoe UI, Arial, sans-serif" font-size="20" font-weight="700">Builder profile</text>
  <text x="708" y="184" fill="#ffffff" font-family="Segoe UI, Arial, sans-serif" font-size="34" font-weight="800">Data-focused.</text>
  <text x="708" y="224" fill="#ffffff" font-family="Segoe UI, Arial, sans-serif" font-size="34" font-weight="800">Support-grounded.</text>
  <text x="708" y="264" fill="#ffffff" font-family="Segoe UI, Arial, sans-serif" font-size="34" font-weight="800">Product-minded.</text>

  <text x="78" y="370" fill="#64748b" font-family="Segoe UI, Arial, sans-serif" font-size="18">rasikn.com</text>
  <text x="996" y="370" fill="#64748b" font-family="Segoe UI, Arial, sans-serif" font-size="18">github.com/Angel16989</text>
</svg>
