<svg width="1200" height="420" viewBox="0 0 1200 420" fill="none" xmlns="http://www.w3.org/2000/svg">
  <defs>
    <linearGradient id="bg" x1="0" y1="0" x2="1200" y2="420" gradientUnits="userSpaceOnUse">
      <stop offset="0" stop-color="#020617"/>
      <stop offset="0.55" stop-color="#0b1220"/>
      <stop offset="1" stop-color="#0f172a"/>
    </linearGradient>
    <linearGradient id="sparkFill" x1="0" y1="222" x2="0" y2="316" gradientUnits="userSpaceOnUse">
      <stop offset="0" stop-color="#0284c7" stop-opacity="0.32"/>
      <stop offset="1" stop-color="#0284c7" stop-opacity="0"/>
    </linearGradient>
    <radialGradient id="glowA" cx="0" cy="0" r="1" gradientUnits="userSpaceOnUse" gradientTransform="translate(950 110) rotate(125) scale(360 220)">
      <stop stop-color="#0284c7" stop-opacity="0.28"/>
      <stop offset="1" stop-color="#0284c7" stop-opacity="0"/>
    </radialGradient>
    <radialGradient id="glowB" cx="0" cy="0" r="1" gradientUnits="userSpaceOnUse" gradientTransform="translate(240 360) rotate(-18) scale(390 180)">
      <stop stop-color="#0d9488" stop-opacity="0.24"/>
      <stop offset="1" stop-color="#0d9488" stop-opacity="0"/>
    </radialGradient>
    <pattern id="grid" width="42" height="42" patternUnits="userSpaceOnUse">
      <path d="M42 0H0V42" stroke="#94a3b8" stroke-opacity="0.06"/>
    </pattern>
    <clipPath id="frame">
      <rect width="1200" height="420" rx="30"/>
    </clipPath>
  </defs>

  <g clip-path="url(#frame)">
    <rect width="1200" height="420" fill="url(#bg)"/>
    <rect width="1200" height="420" fill="url(#grid)"/>
    <rect width="1200" height="420" fill="url(#glowA)"/>
    <rect width="1200" height="420" fill="url(#glowB)"/>

    <!-- window chrome -->
    <rect width="1200" height="52" fill="#0f172a" fill-opacity="0.92"/>
    <line x1="0" y1="52" x2="1200" y2="52" stroke="#1e293b"/>
    <circle cx="36" cy="26" r="6.5" fill="#ef4444" fill-opacity="0.9"/>
    <circle cx="58" cy="26" r="6.5" fill="#d97706" fill-opacity="0.9"/>
    <circle cx="80" cy="26" r="6.5" fill="#22c55e" fill-opacity="0.9"/>
    <text x="104" y="31" fill="#64748b" font-family="Cascadia Code, Consolas, 'Courier New', monospace" font-size="13">rasik@analytics:~$ snowflake --run insights.sql | tableau --publish</text>
    <circle cx="1096" cy="26" r="4" fill="#0d9488"/>
    <text x="1108" y="31" fill="#94a3b8" font-family="Segoe UI, Arial, sans-serif" font-size="12" font-weight="700" letter-spacing="1">LIVE</text>

    <!-- left: identity -->
    <text x="74" y="140" fill="#38bdf8" font-family="Segoe UI, Arial, sans-serif" font-size="15" font-weight="700" letter-spacing="4">DATA ANALYST &#183; BUSINESS INTELLIGENCE &#183; AI</text>
    <text x="72" y="204" fill="#ffffff" font-family="Segoe UI, Arial, sans-serif" font-size="56" font-weight="800">Rasik Tiwari</text>
    <text x="74" y="246" fill="#94a3b8" font-family="Segoe UI, Arial, sans-serif" font-size="18" font-weight="500">Turning messy data into decisions people trust.</text>

    <text x="74" y="290" font-family="Cascadia Code, Consolas, 'Courier New', monospace" font-size="16"><tspan fill="#8b5cf6" font-weight="700">SELECT</tspan><tspan fill="#e2e8f0"> insight </tspan><tspan fill="#8b5cf6" font-weight="700">FROM</tspan><tspan fill="#38bdf8"> raw_data </tspan><tspan fill="#8b5cf6" font-weight="700">WHERE</tspan><tspan fill="#e2e8f0"> noise = </tspan><tspan fill="#2dd4bf">0</tspan><tspan fill="#e2e8f0">;</tspan></text>

    <!-- chips -->
    <g font-family="Segoe UI, Arial, sans-serif" font-size="13" font-weight="600" text-anchor="middle">
      <rect x="72" y="316" width="56" height="30" rx="15" fill="#0284c7" fill-opacity="0.14" stroke="#0284c7" stroke-opacity="0.55"/>
      <text x="100" y="335" fill="#e2e8f0">SQL</text>
      <rect x="140" y="316" width="88" height="30" rx="15" fill="#d97706" fill-opacity="0.14" stroke="#d97706" stroke-opacity="0.55"/>
      <text x="184" y="335" fill="#e2e8f0">Tableau</text>
      <rect x="240" y="316" width="104" height="30" rx="15" fill="#0284c7" fill-opacity="0.14" stroke="#0284c7" stroke-opacity="0.55"/>
      <text x="292" y="335" fill="#e2e8f0">Snowflake</text>
      <rect x="356" y="316" width="84" height="30" rx="15" fill="#0d9488" fill-opacity="0.14" stroke="#0d9488" stroke-opacity="0.55"/>
      <text x="398" y="335" fill="#e2e8f0">Python</text>
      <rect x="452" y="316" width="126" height="30" rx="15" fill="#8b5cf6" fill-opacity="0.14" stroke="#8b5cf6" stroke-opacity="0.55"/>
      <text x="515" y="335" fill="#e2e8f0">AI-Augmented</text>
    </g>

    <!-- right: mini dashboard card -->
    <rect x="656" y="88" width="470" height="252" rx="20" fill="#020617" fill-opacity="0.6" stroke="#1e293b"/>

    <!-- KPI tiles -->
    <g>
      <rect x="680" y="112" width="132" height="64" rx="12" fill="#0f172a" fill-opacity="0.85" stroke="#1e293b"/>
      <rect x="680" y="126" width="3" height="36" rx="1.5" fill="#0284c7"/>
      <text x="696" y="142" fill="#ffffff" font-family="Segoe UI, Arial, sans-serif" font-size="22" font-weight="800">36</text>
      <text x="696" y="162" fill="#64748b" font-family="Segoe UI, Arial, sans-serif" font-size="10" font-weight="700" letter-spacing="1">PUBLIC REPOS</text>

      <rect x="825" y="112" width="132" height="64" rx="12" fill="#0f172a" fill-opacity="0.85" stroke="#1e293b"/>
      <rect x="825" y="126" width="3" height="36" rx="1.5" fill="#0d9488"/>
      <text x="841" y="142" fill="#ffffff" font-family="Segoe UI, Arial, sans-serif" font-size="22" font-weight="800">BI + AI</text>
      <text x="841" y="162" fill="#64748b" font-family="Segoe UI, Arial, sans-serif" font-size="10" font-weight="700" letter-spacing="1">CORE STACK</text>

      <rect x="970" y="112" width="132" height="64" rx="12" fill="#0f172a" fill-opacity="0.85" stroke="#1e293b"/>
      <rect x="970" y="126" width="3" height="36" rx="1.5" fill="#8b5cf6"/>
      <text x="986" y="142" fill="#ffffff" font-family="Segoe UI, Arial, sans-serif" font-size="22" font-weight="800">BNE</text>
      <text x="986" y="162" fill="#64748b" font-family="Segoe UI, Arial, sans-serif" font-size="10" font-weight="700" letter-spacing="1">BRISBANE, AU</text>
    </g>

    <!-- sparkline -->
    <text x="680" y="212" fill="#64748b" font-family="Segoe UI, Arial, sans-serif" font-size="10" font-weight="700" letter-spacing="2">QUERY THROUGHPUT</text>
    <path d="M680 296 L710 282 L740 290 L770 268 L800 274 L830 252 L860 258 L890 238 L916 228 L916 316 L680 316 Z" fill="url(#sparkFill)"/>
    <path d="M680 296 L710 282 L740 290 L770 268 L800 274 L830 252 L860 258 L890 238 L916 228" stroke="#0284c7" stroke-width="2" stroke-linejoin="round" stroke-linecap="round"/>
    <circle cx="916" cy="228" r="4.5" fill="#0284c7" stroke="#020617" stroke-width="2"/>
    <line x1="680" y1="316" x2="916" y2="316" stroke="#1e293b"/>

    <!-- bar chart -->
    <text x="944" y="212" fill="#64748b" font-family="Segoe UI, Arial, sans-serif" font-size="10" font-weight="700" letter-spacing="2">SHIP CADENCE</text>
    <g fill="#0d9488">
      <path d="M944 316 V291 Q944 288 947 288 H949 Q952 288 952 291 V316 Z"/>
      <path d="M966 316 V275 Q966 272 969 272 H971 Q974 272 974 275 V316 Z"/>
      <path d="M988 316 V283 Q988 280 991 280 H993 Q996 280 996 283 V316 Z"/>
      <path d="M1010 316 V261 Q1010 258 1013 258 H1015 Q1018 258 1018 261 V316 Z"/>
      <path d="M1032 316 V271 Q1032 268 1035 268 H1037 Q1040 268 1040 271 V316 Z"/>
      <path d="M1054 316 V249 Q1054 246 1057 246 H1059 Q1062 246 1062 249 V316 Z"/>
      <path d="M1076 316 V235 Q1076 232 1079 232 H1081 Q1084 232 1084 235 V316 Z"/>
    </g>
    <line x1="944" y1="316" x2="1102" y2="316" stroke="#1e293b"/>

    <!-- footer -->
    <text x="72" y="394" fill="#64748b" font-family="Segoe UI, Arial, sans-serif" font-size="15">rasikn.com</text>
    <text x="1128" y="394" fill="#64748b" font-family="Segoe UI, Arial, sans-serif" font-size="15" text-anchor="end">github.com/Angel16989</text>
  </g>
</svg>
